# xmcd
#
# Track frame offsets:
#	150
#	15362
#	29155
#	38952
#	51307
#	68627
#	79982
#	96800
#	113095
#	129222
#	143575
#	155347
#	167835
#	182427
#	197985
#	214402
#
# Disc length: 2996
#
# Revision: 2
# Processed by: cddbd v1.5.1PL0 Copyright (c) Steve Scherf et al.
# Submitted via: CDex 1.50
# Normalized: r1:DSETVAR1
#
DISCID=da0bb210
DTITLE=Various Artist - Die Geschichte der Volksmusik Folge 5 [CD 2)
DYEAR=1995
DGENRE=Jazz
TTITLE0=Kastelruther Spatzen - Das Mädchen mit den erloschenen Augen
TTITLE1=Edith Prock - Hörst du die Glocken von Stella Maria
TTITLE2=Peter Hinnen - Siebentausend Rinder
TTITLE3=Wolfgang Lindner Band - Rauschende Birken
TTITLE4=Medium Terzett - Ein Loch ist im Eimer
TTITLE5=Emder Shanty Gruppe - Schön ist die Liebe im Hafen
TTITLE6=Tiroler Nachtschwärmer - Silberfäden
TTITLE7=Hazy Osterwald Sextett - Kriminaltango
TTITLE8=Wildecker Herzbuben - Herzilein
TTITLE9=Ivan Rebroff - Eine weiße Birke
TTITLE10=Original Naabtal Duo - Patrona Bavariae
TTITLE11=Marianne and Michael - Wo der Wildbach rauscht
TTITLE12=Patrizius - Aber dich gibt's nur einmal für mich
TTITLE13=Walter Scholz - Sehnsuchtsmelodie
TTITLE14=Teddy Parker - Das Schicksalslied
TTITLE15=Kapelle Romantica - So schön ist Volksmusik
EXTD=YEAR: 1995
EXTT0=
EXTT1=
EXTT2=
EXTT3=
EXTT4=
EXTT5=
EXTT6=
EXTT7=
EXTT8=
EXTT9=
EXTT10=
EXTT11=
EXTT12=
EXTT13=
EXTT14=
EXTT15=
PLAYORDER=
